<svg width="254" height="96" viewBox="0 0 254 96" fill="none" xmlns="http://www.w3.org/2000/svg">
<path d="M37.272 70L23.128 50.224V70H10.584V24.88H23.128V44.336L37.144 24.88H51.608L35.032 46.768L52.44 70H37.272ZM63.1655 60.4H77.1815V70H50.6215V24.88H63.1655V60.4Z" fill="#BD55D7"/>
<path d="M102.725 44L96.825 36.25V44H92.55V26.45H96.825V34.15L102.675 26.45H107.7L100.9 35.05L107.95 44H102.725ZM123.132 36.8C123.132 37.2 123.107 37.6167 123.057 38.05H113.382C113.448 38.9167 113.723 39.5833 114.207 40.05C114.707 40.5 115.315 40.725 116.032 40.725C117.098 40.725 117.84 40.275 118.257 39.375H122.807C122.573 40.2917 122.148 41.1167 121.532 41.85C120.932 42.5833 120.173 43.1583 119.257 43.575C118.34 43.9917 117.315 44.2 116.182 44.2C114.815 44.2 113.598 43.9083 112.532 43.325C111.465 42.7417 110.632 41.9083 110.032 40.825C109.432 39.7417 109.132 38.475 109.132 37.025C109.132 35.575 109.423 34.3083 110.007 33.225C110.607 32.1417 111.44 31.3083 112.507 30.725C113.573 30.1417 114.798 29.85 116.182 29.85C117.532 29.85 118.732 30.1333 119.782 30.7C120.832 31.2667 121.648 32.075 122.232 33.125C122.832 34.175 123.132 35.4 123.132 36.8ZM118.757 35.675C118.757 34.9417 118.507 34.3583 118.007 33.925C117.507 33.4917 116.882 33.275 116.132 33.275C115.415 33.275 114.807 33.4833 114.307 33.9C113.823 34.3167 113.523 34.9083 113.407 35.675H118.757ZM129.662 25.5V44H125.387V25.5H129.662ZM137.035 25.5V44H132.76V25.5H137.035ZM154.383 30.05L145.633 50.625H141.033L144.233 43.525L138.558 30.05H143.333L146.558 38.775L149.758 30.05H154.383ZM165.502 40.7H171.102V44H161.227V26.45H165.502V40.7ZM172.291 37C172.291 35.5667 172.557 34.3083 173.091 33.225C173.641 32.1417 174.382 31.3083 175.316 30.725C176.249 30.1417 177.291 29.85 178.441 29.85C179.424 29.85 180.282 30.05 181.016 30.45C181.766 30.85 182.341 31.375 182.741 32.025V30.05H187.016V44H182.741V42.025C182.324 42.675 181.741 43.2 180.991 43.6C180.257 44 179.399 44.2 178.416 44.2C177.282 44.2 176.249 43.9083 175.316 43.325C174.382 42.725 173.641 41.8833 173.091 40.8C172.557 39.7 172.291 38.4333 172.291 37ZM182.741 37.025C182.741 35.9583 182.441 35.1167 181.841 34.5C181.257 33.8833 180.541 33.575 179.691 33.575C178.841 33.575 178.116 33.8833 177.516 34.5C176.932 35.1 176.641 35.9333 176.641 37C176.641 38.0667 176.932 38.9167 177.516 39.55C178.116 40.1667 178.841 40.475 179.691 40.475C180.541 40.475 181.257 40.1667 181.841 39.55C182.441 38.9333 182.741 38.0917 182.741 37.025ZM210.134 30.05L206.359 44H201.634L199.434 34.95L197.159 44H192.459L188.659 30.05H192.934L194.909 40.025L197.259 30.05H201.784L204.159 39.975L206.109 30.05H210.134ZM216.039 25.5V44H211.764V25.5H216.039ZM225.487 44.2C224.12 44.2 222.887 43.9083 221.787 43.325C220.704 42.7417 219.845 41.9083 219.212 40.825C218.595 39.7417 218.287 38.475 218.287 37.025C218.287 35.5917 218.604 34.3333 219.237 33.25C219.87 32.15 220.737 31.3083 221.837 30.725C222.937 30.1417 224.17 29.85 225.537 29.85C226.904 29.85 228.137 30.1417 229.237 30.725C230.337 31.3083 231.204 32.15 231.837 33.25C232.47 34.3333 232.787 35.5917 232.787 37.025C232.787 38.4583 232.462 39.725 231.812 40.825C231.179 41.9083 230.304 42.7417 229.187 43.325C228.087 43.9083 226.854 44.2 225.487 44.2ZM225.487 40.5C226.304 40.5 226.995 40.2 227.562 39.6C228.145 39 228.437 38.1417 228.437 37.025C228.437 35.9083 228.154 35.05 227.587 34.45C227.037 33.85 226.354 33.55 225.537 33.55C224.704 33.55 224.012 33.85 223.462 34.45C222.912 35.0333 222.637 35.8917 222.637 37.025C222.637 38.1417 222.904 39 223.437 39.6C223.987 40.2 224.67 40.5 225.487 40.5ZM239.33 32.375C239.83 31.6083 240.455 31.0083 241.205 30.575C241.955 30.125 242.788 29.9 243.705 29.9V34.425H242.53C241.463 34.425 240.663 34.6583 240.13 35.125C239.597 35.575 239.33 36.375 239.33 37.525V44H235.055V30.05H239.33V32.375Z" fill="#BD55D7"/>
<path d="M93.94 56.02V64.82C93.94 66.2067 94.2667 67.2333 94.92 67.9C95.5867 68.5667 96.4933 68.9 97.64 68.9C98.7867 68.9 99.68 68.5733 100.32 67.92C100.973 67.2533 101.3 66.22 101.3 64.82V56.02H102.7V64.8C102.7 66.5733 102.227 67.9067 101.28 68.8C100.347 69.6933 99.1267 70.14 97.62 70.14C96.1133 70.14 94.8867 69.6933 93.94 68.8C93.0067 67.9067 92.54 66.5733 92.54 64.8V56.02H93.94ZM110.863 63.02L115.103 70H113.543L109.983 64.16L106.603 70H105.043L109.263 62.96L105.043 56.02H106.603L110.143 61.84L113.563 56.02H115.123L110.863 63.02ZM127.15 56.02C128.697 56.02 130.023 56.3 131.13 56.86C132.237 57.42 133.083 58.2267 133.67 59.28C134.257 60.3333 134.55 61.5867 134.55 63.04C134.55 64.48 134.257 65.7267 133.67 66.78C133.083 67.82 132.237 68.62 131.13 69.18C130.023 69.7267 128.697 70 127.15 70H123.01V56.02H127.15ZM127.15 68.84C129.097 68.84 130.577 68.3333 131.59 67.32C132.617 66.2933 133.13 64.8667 133.13 63.04C133.13 61.2 132.617 59.7667 131.59 58.74C130.577 57.7 129.097 57.18 127.15 57.18H124.41V68.84H127.15ZM147.011 63.98C147.011 64.46 146.998 64.8267 146.971 65.08H137.911C137.951 65.9067 138.151 66.6133 138.511 67.2C138.871 67.7867 139.345 68.2333 139.931 68.54C140.518 68.8333 141.158 68.98 141.851 68.98C142.758 68.98 143.518 68.76 144.131 68.32C144.758 67.88 145.171 67.2867 145.371 66.54H146.851C146.585 67.6067 146.011 68.48 145.131 69.16C144.265 69.8267 143.171 70.16 141.851 70.16C140.825 70.16 139.905 69.9333 139.091 69.48C138.278 69.0133 137.638 68.36 137.171 67.52C136.718 66.6667 136.491 65.6733 136.491 64.54C136.491 63.4067 136.718 62.4133 137.171 61.56C137.625 60.7067 138.258 60.0533 139.071 59.6C139.885 59.1467 140.811 58.92 141.851 58.92C142.891 58.92 143.798 59.1467 144.571 59.6C145.358 60.0533 145.958 60.6667 146.371 61.44C146.798 62.2 147.011 63.0467 147.011 63.98ZM145.591 63.94C145.605 63.1267 145.438 62.4333 145.091 61.86C144.758 61.2867 144.298 60.8533 143.711 60.56C143.125 60.2667 142.485 60.12 141.791 60.12C140.751 60.12 139.865 60.4533 139.131 61.12C138.398 61.7867 137.991 62.7267 137.911 63.94H145.591ZM153.333 70.16C152.079 70.16 151.053 69.8733 150.253 69.3C149.466 68.7133 149.026 67.92 148.933 66.92H150.373C150.439 67.5333 150.726 68.0333 151.233 68.42C151.753 68.7933 152.446 68.98 153.313 68.98C154.073 68.98 154.666 68.8 155.093 68.44C155.533 68.08 155.753 67.6333 155.753 67.1C155.753 66.7267 155.633 66.42 155.393 66.18C155.153 65.94 154.846 65.7533 154.473 65.62C154.113 65.4733 153.619 65.32 152.993 65.16C152.179 64.9467 151.519 64.7333 151.013 64.52C150.506 64.3067 150.073 63.9933 149.713 63.58C149.366 63.1533 149.193 62.5867 149.193 61.88C149.193 61.3467 149.353 60.8533 149.673 60.4C149.993 59.9467 150.446 59.5867 151.033 59.32C151.619 59.0533 152.286 58.92 153.033 58.92C154.206 58.92 155.153 59.22 155.873 59.82C156.593 60.4067 156.979 61.22 157.033 62.26H155.633C155.593 61.62 155.339 61.1067 154.873 60.72C154.419 60.32 153.793 60.12 152.993 60.12C152.286 60.12 151.713 60.2867 151.273 60.62C150.833 60.9533 150.613 61.3667 150.613 61.86C150.613 62.2867 150.739 62.64 150.993 62.92C151.259 63.1867 151.586 63.4 151.973 63.56C152.359 63.7067 152.879 63.8733 153.533 64.06C154.319 64.2733 154.946 64.48 155.413 64.68C155.879 64.88 156.279 65.1733 156.613 65.56C156.946 65.9467 157.119 66.46 157.133 67.1C157.133 67.6867 156.973 68.2133 156.653 68.68C156.333 69.1333 155.886 69.4933 155.313 69.76C154.739 70.0267 154.079 70.16 153.333 70.16ZM160.468 57.02C160.188 57.02 159.948 56.92 159.748 56.72C159.548 56.52 159.448 56.2733 159.448 55.98C159.448 55.6867 159.548 55.4467 159.748 55.26C159.948 55.06 160.188 54.96 160.468 54.96C160.748 54.96 160.988 55.06 161.188 55.26C161.388 55.4467 161.488 55.6867 161.488 55.98C161.488 56.2733 161.388 56.52 161.188 56.72C160.988 56.92 160.748 57.02 160.468 57.02ZM161.168 59.08V70H159.768V59.08H161.168ZM168.918 58.92C169.945 58.92 170.838 59.16 171.598 59.64C172.358 60.12 172.905 60.7267 173.238 61.46V59.08H174.638V70.28C174.638 71.28 174.418 72.1667 173.978 72.94C173.552 73.7133 172.952 74.3067 172.178 74.72C171.405 75.1467 170.525 75.36 169.538 75.36C168.138 75.36 166.972 75.0267 166.038 74.36C165.118 73.6933 164.545 72.7867 164.318 71.64H165.698C165.938 72.4 166.392 73.0067 167.058 73.46C167.738 73.9133 168.565 74.14 169.538 74.14C170.245 74.14 170.878 73.9867 171.438 73.68C171.998 73.3867 172.438 72.9467 172.758 72.36C173.078 71.7733 173.238 71.08 173.238 70.28V67.58C172.892 68.3267 172.338 68.9467 171.578 69.44C170.832 69.92 169.945 70.16 168.918 70.16C167.918 70.16 167.018 69.9267 166.218 69.46C165.432 68.9933 164.812 68.3333 164.358 67.48C163.918 66.6267 163.698 65.64 163.698 64.52C163.698 63.4 163.918 62.42 164.358 61.58C164.812 60.7267 165.432 60.0733 166.218 59.62C167.018 59.1533 167.918 58.92 168.918 58.92ZM173.238 64.54C173.238 63.66 173.058 62.8867 172.698 62.22C172.338 61.5533 171.845 61.04 171.218 60.68C170.605 60.32 169.925 60.14 169.178 60.14C168.405 60.14 167.712 60.3133 167.098 60.66C166.485 61.0067 165.998 61.5133 165.638 62.18C165.292 62.8333 165.118 63.6133 165.118 64.52C165.118 65.4133 165.292 66.2 165.638 66.88C165.998 67.5467 166.485 68.06 167.098 68.42C167.712 68.7667 168.405 68.94 169.178 68.94C169.925 68.94 170.605 68.76 171.218 68.4C171.845 68.04 172.338 67.5267 172.698 66.86C173.058 66.1933 173.238 65.42 173.238 64.54ZM182.954 58.88C184.261 58.88 185.328 59.2867 186.154 60.1C186.981 60.9 187.394 62.0667 187.394 63.6V70H186.014V63.76C186.014 62.5733 185.714 61.6667 185.114 61.04C184.528 60.4133 183.721 60.1 182.694 60.1C181.641 60.1 180.801 60.4333 180.174 61.1C179.548 61.7667 179.234 62.7467 179.234 64.04V70H177.834V59.08H179.234V60.94C179.581 60.2733 180.081 59.7667 180.734 59.42C181.388 59.06 182.128 58.88 182.954 58.88ZM200.371 63.98C200.371 64.46 200.357 64.8267 200.331 65.08H191.271C191.311 65.9067 191.511 66.6133 191.871 67.2C192.231 67.7867 192.704 68.2333 193.291 68.54C193.877 68.8333 194.517 68.98 195.211 68.98C196.117 68.98 196.877 68.76 197.491 68.32C198.117 67.88 198.531 67.2867 198.731 66.54H200.211C199.944 67.6067 199.371 68.48 198.491 69.16C197.624 69.8267 196.531 70.16 195.211 70.16C194.184 70.16 193.264 69.9333 192.451 69.48C191.637 69.0133 190.997 68.36 190.531 67.52C190.077 66.6667 189.851 65.6733 189.851 64.54C189.851 63.4067 190.077 62.4133 190.531 61.56C190.984 60.7067 191.617 60.0533 192.431 59.6C193.244 59.1467 194.171 58.92 195.211 58.92C196.251 58.92 197.157 59.1467 197.931 59.6C198.717 60.0533 199.317 60.6667 199.731 61.44C200.157 62.2 200.371 63.0467 200.371 63.98ZM198.951 63.94C198.964 63.1267 198.797 62.4333 198.451 61.86C198.117 61.2867 197.657 60.8533 197.071 60.56C196.484 60.2667 195.844 60.12 195.151 60.12C194.111 60.12 193.224 60.4533 192.491 61.12C191.757 61.7867 191.351 62.7267 191.271 63.94H198.951ZM204.332 61.02C204.639 60.34 205.105 59.8133 205.732 59.44C206.372 59.0667 207.152 58.88 208.072 58.88V60.34H207.692C206.679 60.34 205.865 60.6133 205.252 61.16C204.639 61.7067 204.332 62.62 204.332 63.9V70H202.932V59.08H204.332V61.02Z" fill="#BD55D7"/>
</svg>
